{"title":"Southcliffe 2013 TV serie complete English Klam","uid":9205357,"size":1896347488,"categoryP":"video","categoryS":"movies","magnet":"?xt=urn:btih:ceda93070daf744616575ca615ac9c3a2544b094&amp;dn=Southcliffe+2013+TV+serie+complete+English+Klam&amp;tr=udp%3A%2F%2Ftracker.openbittorrent.com%3A80&amp;tr=udp%3A%2F%2Fopen.demonii.com%3A1337&amp;tr=udp%3A%2F%2Ftracker.coppersurfer.tk%3A6969&amp;tr=udp%3A%2F%2Fexodus.desync.com%3A6969","seeders":4,"leechers":2,"uploader":"Klambake","files":-1,"time":1384686243,"description":"With: Eddie Marsan, Kaya Scodelario and Shirley Henderson\n\nSouthcliffe vertelt het verhaal van een doodnormaal Engels stadje dat verwoest is door een golf van schietpartijen die gedurende een enkele dag plaatsvonden. Een journalist keert terug naar het stadje waar hij is opgegroeid om verslag uit te brengen over de tragedie en over diegene die het dichtst bij de slachtoffers staan.\n\nFollowing a raft of shootings in an English market town, the crimes are retold through the eyes of a journalist and the tragedies' victims. \n &lt;a href=&quot;\nhttp://www.imdb.com/title/tt2446726&quot; rel=&quot;nofollow&quot; target=&quot;_NEW&quot;&gt;\nhttp://www.imdb.com/title/tt2446726&lt;/a&gt;\t\n\n--------------------- Dutch Friends 4ever ---------------------\n---------------------------------------------------------------\n- Bezoek ook eens mijn vrienden op: &lt;a href=&quot; http://www.Film-Test.nl&quot; rel=&quot;nofollow&quot; target=&quot;_NEW&quot;&gt; http://www.Film-Test.nl&lt;/a&gt; --\n----- voor mijn Nederlandse Sync. ondertitels ---- en meer ----\n------- http://www.Film-Test.nl ---- Over Films en meer -------\n---------------------------------------------------------------\n\nGeneral:\n\nComplete name                    : G:KlambakeSouthcliffePart 01.avi\nFormat                           : AVI\nFormat/Info                      : Audio Video Interleave\nFile size                        : 443 MiB\nDuration                         : 45mn 53s\nOverall bit rate                 : 1 348 Kbps\n\nVideo:\n\nFormat                           : MPEG-4 Visual\nFormat profile                   : Simple@L3\nFormat settings, BVOP            : No\nFormat settings, QPel            : No\nFormat settings, GMC             : No warppoints\nFormat settings, Matrix          : Default (H.263)\nCodec ID                         : XVID\nCodec ID/Hint                    : XviD\nDuration                         : 45mn 53s\nBit rate                         : 890 Kbps\nWidth                            : 704 pixels\nHeight                           : 396 pixels\nDisplay aspect ratio             : 16:9\nFrame rate                       : 25.000 fps\nColor space                      : YUV\nChroma subsampling               : 4:2:0\nBit depth                        : 8 bits\nScan type                        : Progressive\nCompression mode                 : Lossy\nBits/(Pixel*Frame)               : 0.128\nStream size                      : 292 MiB (66%)\nWriting library                  : XviD 1.1.2 (UTC 2006-11-01)\n\nAudio:\n\nFormat                           : AC-3\nFormat/Info                      : Audio Coding 3\nMode extension                   : CM (complete main)\nCodec ID                         : 2000\nDuration                         : 45mn 53s\nBit rate mode                    : Constant\nBit rate                         : 448 Kbps\nChannel(s)                       : 6 channels\nChannel positions                : Front: L C R, Side: L R, LFE\nSampling rate                    : 48.0 KHz\nBit depth                        : 16 bits\nCompression mode                 : Lossy\nStream size                      : 147 MiB (33%)\nAlignment                        : Aligned on interleaves\nInterleave, duration             : 32 ms (0.80 video frame)\nInterleave, preload duration     : 320 ms","torrent":{"xt":"urn:btih:ceda93070daf744616575ca615ac9c3a2544b094","amp;dn":"Southcliffe+2013+TV+serie+complete+English+Klam","amp;tr":["udp%3A%2F%2Ftracker.openbittorrent.com%3A80","udp%3A%2F%2Fopen.demonii.com%3A1337","udp%3A%2F%2Ftracker.coppersurfer.tk%3A6969","udp%3A%2F%2Fexodus.desync.com%3A6969"],"infoHash":"ceda93070daf744616575ca615ac9c3a2544b094","infoHashBuffer":{"type":"Buffer","data":[206,218,147,7,13,175,116,70,22,87,92,166,21,172,156,58,37,68,176,148]},"announce":[],"urlList":[]}}